<?xml version="1.0" encoding="utf-8"?>
<!-- Generator: Adobe Illustrator 22.1.0, SVG Export Plug-In . SVG Version: 6.00 Build 0)  -->
<svg version="1.1"
	 id="svg2" xmlns:cc="http://creativecommons.org/ns#" xmlns:dc="http://purl.org/dc/elements/1.1/" xmlns:rdf="http://www.w3.org/1999/02/22-rdf-syntax-ns#" xmlns:svg="http://www.w3.org/2000/svg"
	 xmlns="http://www.w3.org/2000/svg" xmlns:xlink="http://www.w3.org/1999/xlink" x="0px" y="0px" viewBox="0 0 310.5 361.2"
	 style="enable-background:new 0 0 310.5 361.2;" xml:space="preserve">
<style type="text/css">
	.st0{fill:#BE4620;}
</style>
<g id="g10" transform="matrix(1.3333333,0,0,-1.3333333,0,460.56)">
	<g id="g12" transform="scale(0.1)">
		<g id="path14">
			<path class="st0" d="M2265.7,2972.6L553.9,3377l128.6-251.1c-17,2.7-34.3,4-51.8,4c-88.6-0.1-171.9-34.8-234.6-97.7
				c-62.7-62.9-97.1-146.3-96.9-234.8c0.2-124,70.2-236.9,178.2-293.5l-2-8.2H285.8l134.9-226.3l-72.8-301.8H190.4l108.2-205.5
				L71.7,837.2l932.8,230.5l777.4-254.5l54.2,275.9c81,25.5,153.6,75.2,206.9,142.1c60.4,75.8,93.7,170.9,93.7,267.6
				c0,95.3-30.6,185.6-88.5,261.1c-5.1,6.6-10.3,13.1-15.7,19.3c-11.1,12.9-23.1,25.2-35.7,36.7L2265.7,2972.6"/>
			<path class="st0" d="M1821.9,744.9l-819.5,268.3L0,765.4l242.8,989.9l-139.4,264.8h203.1l58.1,240.8l-171.3,287.3H339
				c-58.5,68.3-92.1,156-92.2,249.2c-0.2,102.6,39.7,199.1,112.2,271.9c64.2,64.4,147.1,103.2,236.4,111.5l-140.1,273.5
				l1873.4-442.6l-274.2-1178.8c6.1-6.3,12-12.8,17.6-19.3c6-6.9,11.9-14.2,17.6-21.6c65-84.7,99.3-186.1,99.3-293
				c0-108.6-37.3-215.2-105.1-300.3c-53.4-67.1-122.9-118.1-202.3-149L1821.9,744.9z M1006.4,1122.3l735.3-240.7l48.8,248.3
				l29.7,9.4c70.8,22.3,135.3,66.6,181.6,124.8c53,66.6,82.2,150,82.2,234.9c0,83.6-26.9,162.9-77.7,229.1
				c-4.4,5.8-9.1,11.5-13.8,16.9c-9.7,11.3-20.3,22.1-31.4,32.3l-22.7,20.7l264.1,1135.6L652.4,3299.7l123.8-241.6L674.4,3074
				c-14.3,2.2-29,3.4-43.7,3.4c-74.5-0.1-144.6-29.3-197.4-82.2c-52.8-52.9-81.7-123.1-81.6-197.7c0.2-104,57.7-198.6,150.1-247.1
				l36.3-19l-21.4-88.2H378.2l98.5-165.3l-87.6-362.8H277.3l76.9-146.2L143.3,909L1006.4,1122.3z"/>
		</g>
	</g>
</g>
</svg>
