<?xml version="1.0" encoding="UTF-8" standalone="no"?>
<svg
   xmlns:dc="http://purl.org/dc/elements/1.1/"
   xmlns:cc="http://creativecommons.org/ns#"
   xmlns:rdf="http://www.w3.org/1999/02/22-rdf-syntax-ns#"
   xmlns:svg="http://www.w3.org/2000/svg"
   xmlns="http://www.w3.org/2000/svg"
   viewBox="0 0 394.16 460.56"
   height="341.827370003"
   width="292.545327775"
   xml:space="preserve"
   id="svg2"
   version="1.1"><metadata
     id="metadata8"><rdf:RDF><cc:Work
         rdf:about=""><dc:format>image/svg+xml</dc:format><dc:type
           rdf:resource="http://purl.org/dc/dcmitype/StillImage" /></cc:Work></rdf:RDF></metadata><defs
     id="defs6" /><g
     transform="matrix(1.3333333,0,0,-1.3333333,0,460.56)"
     id="g10"><g
       transform="scale(0.1)"
       id="g12"><path
         id="path14"
         style="fill:#bcb5a8;fill-opacity:1;fill-rule:nonzero;stroke:none"
         d="M 2956.17,2909.36 649.727,3454.22 823.059,3115.89 c -22.911,3.58 -46.219,5.39 -69.743,5.39 -119.418,-0.19 -231.617,-46.92 -316.035,-131.6 -84.414,-84.7 -130.797,-197.05 -130.601,-316.36 0.269,-167.05 94.597,-319.16 240.066,-395.46 l -2.683,-11.09 H 288.496 L 470.25,1961.91 372.117,1555.32 H 159.941 L 305.66,1278.43 0,32.2695 1256.74,342.879 2304.12,0 l 73.07,371.762 c 109.16,34.398 206.93,101.297 278.78,191.468 81.39,102.18 126.22,230.231 126.22,360.571 0,128.399 -41.23,250.029 -119.24,351.749 -6.81,8.89 -13.93,17.64 -21.15,25.99 -14.98,17.37 -31.08,33.91 -48.08,49.46 l 362.45,1558.36" /><path
         id="path16"
         style="fill:#15223c;fill-opacity:1;fill-rule:nonzero;stroke:none"
         d="m 2590.01,1255.43 c -21.76,25.24 -46.01,48.35 -72.23,68.9 L 2874.12,2856.39 777.066,3352 963.605,2987.9 c -61.882,41.49 -134.558,63.79 -210.718,63.79 -101.184,-0.17 -196.348,-39.82 -267.961,-111.66 -71.61,-71.85 -110.957,-167.13 -110.789,-268.3 0.254,-159.9 102.426,-302.9 251.5,-356.45 l -28.59,-118.1 H 407.578 L 542.316,1971.16 457.125,1619.33 425.309,1485.72 H 271.941 L 377.309,1285.52 138.57,313.691 114.133,213.91 l 0.078,0.012 -22.1055,-90.57 1166.8245,288.386 992.96,-325.0583 66.37,337.7423 c 230.32,53.058 395.63,259.457 395.63,497.668 0,113.33 -36.4,220.68 -105.23,310.42 -5.99,7.83 -12.22,15.48 -18.65,22.92" /><path
         id="path18"
         style="fill:#81a4dc;fill-opacity:1;fill-rule:nonzero;stroke:none"
         d="M 1148.74,475.32 336.367,740.43 217.961,248.262 Z" /><path
         id="path20"
         style="fill:#3259b1;fill-opacity:1;fill-rule:nonzero;stroke:none"
         d="m 1509.7,500.512 c 0,0 475.84,0 703.53,0 71.16,1.718 127.28,19.508 156.16,30.957 6.53,2.703 21.51,9.519 21.51,9.519 -1.52,2.973 -3.24,6.012 -5.42,9.153 -6.87,9.757 -18.88,21.679 -39.06,32.39 -1.01,0.547 -2.04,1.059 -3.08,1.571 -1.13,0.578 -2.18,1.168 -3.37,1.73 -0.03,-0.031 -0.06,-0.062 -0.1,-0.094 -23.44,11.203 -50.52,17.383 -73.72,20.883 -28.84,4.219 -51.15,4.258 -51.34,4.301 l -0.09,-0.031 c -22.48,-0.11 -45.24,-1.231 -72.2,-1.551 -22.67,-0.281 -40.45,-1.531 -59.39,-0.981 l 0.28,-0.089 h -892.77 l -141.43,46.39 c 0,0 672.94,0 841.07,0 -8.36,3.621 -69.41,32.36 -115.38,95.379 H 530.641 l 1652.099,-541.648 18.82,93.289 h -84.83 l -141.44,46.39 c 0,0 151.38,0 235.64,0 l 10.37,51.418 c 0.02,-0.008 0.05,-0.008 0.07,-0.019 l 11.03,54.652 h -581.27 l -141.43,46.391" /><path
         id="path22"
         style="fill:#44a73a;fill-opacity:1;fill-rule:nonzero;stroke:none"
         d="m 1121.7,3051.47 -74.54,145.15 -100.469,23.42 146.199,-284.85 28.81,116.28" /><path
         id="path24"
         style="fill:#44a73a;fill-opacity:1;fill-rule:nonzero;stroke:none"
         d="m 1184.04,2930.1 -27.95,-118.07 92.79,-180.78 88.66,-0.01 -153.5,298.86" /><path
         id="path26"
         style="fill:#44a73a;fill-opacity:1;fill-rule:nonzero;stroke:none"
         d="m 1796.75,3018.08 -633.11,150.38 275,-537.22 h 131.8 l 77.05,114.4 -34.21,-0.02 183.47,272.46" /><path
         id="path28"
         style="fill:#44a73a;fill-opacity:1;fill-rule:nonzero;stroke:none"
         d="m 1882.2,2997.8 98.63,-305.92 133.65,198.49 95.24,-293.18 149.34,221.79 92.65,-286.27 49.13,72.97 h -34.85 l 47.68,70.75 0.16,-0.48 99.8,148.22 -731.43,173.63" /><path
         id="path30"
         style="fill:#44a73a;fill-opacity:1;fill-rule:nonzero;stroke:none"
         d="m 2683.07,2808.66 -104.95,-155.95 h 34.5 l -90.36,-134.08 h 39.22 l -0.02,-0.03 h 0.04 l -76.11,-111.74 h 104.88 l 92.81,401.81 -0.01,-0.01" /><path
         id="path32"
         style="fill:#237a39;fill-opacity:1;fill-rule:nonzero;stroke:none"
         d="m 2676.37,2406.86 h -0.47 l 0.47,0.01 57.34,248.28 -0.47,1.36 -50.16,152.16 -92.81,-401.81 h 86.1" /><path
         id="path34"
         style="fill:#44a73a;fill-opacity:1;fill-rule:nonzero;stroke:none"
         d="m 1757.28,2632.36 71.98,312.17 -0.01,-0.01 -102.58,-152.42 h 33.73 l -107.66,-159.74 h 104.54" /><path
         id="path36"
         style="fill:#237a39;fill-opacity:1;fill-rule:nonzero;stroke:none"
         d="m 1917.37,2406.86 -59.35,225.4 h 46.78 l -53.77,159.84 h 28.5 l -50.27,152.43 -71.98,-312.17 -44.01,-225.5 h 204.1" /><path
         id="path38"
         style="fill:#44a73a;fill-opacity:1;fill-rule:nonzero;stroke:none"
         d="m 1968.83,2406.87 h 68.38 l 56.2,330.78 -96.96,-144.06 h 31.88 l -77.07,-114.5 17.57,-72.22" /><path
         id="path40"
         style="fill:#237a39;fill-opacity:1;fill-rule:nonzero;stroke:none"
         d="m 2140.9,2406.87 -23.39,88.47 30.68,-0.27 -33.45,98.52 h 26.93 l -48.26,144.06 -56.2,-330.78 h 103.69" /><path
         id="path42"
         style="fill:#44a73a;fill-opacity:1;fill-rule:nonzero;stroke:none"
         d="m 2236.25,2406.87 h 57.78 l 44.82,259.42 v 0 l -85.62,-126.77 h 33.73 l -61.55,-91.91 10.84,-40.74" /><path
         id="path44"
         style="fill:#237a39;fill-opacity:1;fill-rule:nonzero;stroke:none"
         d="m 2396.47,2406.87 -44.74,133.03 h 28.5 l -41.49,126.77 v 0 l -44.71,-259.8 h 102.44" /><path
         id="path46"
         style="fill:#ffffff;fill-opacity:1;fill-rule:nonzero;stroke:none"
         d="m 2448.46,2740.46 c 7.09,-1.29 11.5,-7.08 11.03,-14.48 l -1.85,-29.64 12.18,29.64 c 3.04,7.4 10.21,13.19 17.9,14.48 l 30.87,5.16 -28.41,5.16 c -7.09,1.29 -11.52,7.08 -11.05,14.48 l 1.87,29.64 -12.19,-29.64 c -3.05,-7.4 -10.21,-13.19 -17.91,-14.48 l -30.87,-5.16 28.43,-5.16" /><path
         id="path48"
         style="fill:#ffffff;fill-opacity:1;fill-rule:nonzero;stroke:none"
         d="m 1456.76,2875.63 c 19.38,-3.52 31.46,-19.34 30.19,-39.56 l -5.09,-81.01 33.31,81.01 c 8.31,20.22 27.89,36.04 48.93,39.56 l 84.36,14.11 -77.67,14.11 c -19.38,3.52 -31.45,19.35 -30.18,39.56 l 5.08,81.02 -33.31,-81.02 c -8.31,-20.21 -27.88,-36.04 -48.93,-39.56 l -84.36,-14.11 77.67,-14.11" /><path
         id="path50"
         style="fill:#ffffff;fill-opacity:1;fill-rule:nonzero;stroke:none"
         d="m 1342.83,3013.78 c 7.59,-1.38 12.31,-7.57 11.81,-15.48 l -1.99,-31.7 13.04,31.7 c 3.25,7.91 10.91,14.1 19.15,15.48 l 33.01,5.52 -30.39,5.52 c -7.59,1.38 -12.31,7.58 -11.82,15.49 l 2,31.7 -13.04,-31.7 c -3.25,-7.91 -10.91,-14.11 -19.15,-15.49 l -33.01,-5.52 30.39,-5.52" /><path
         id="path52"
         style="fill:#ffffff;fill-opacity:1;fill-rule:nonzero;stroke:none"
         d="m 2218.46,2821.37 c 7.09,-1.29 11.51,-7.08 11.04,-14.48 l -1.86,-29.64 12.18,29.64 c 3.05,7.4 10.21,13.19 17.91,14.48 l 30.86,5.16 -28.41,5.17 c -7.09,1.28 -11.51,7.07 -11.05,14.47 l 1.87,29.64 -12.19,-29.64 c -3.04,-7.4 -10.21,-13.19 -17.9,-14.47 l -30.87,-5.17 28.42,-5.16" /><path
         id="path54"
         style="fill:#be4620;fill-opacity:1;fill-rule:nonzero;stroke:none"
         d="m 2609.62,790.969 c 7.01,21.32 11.69,42.801 15.21,64.281 -22.65,-36.129 -55.27,-68.09 -101.9,-76.852 -7.06,-1.347 -13.97,-1.957 -20.77,-1.957 -7.08,0 -14.02,0.719 -20.79,2.059 -9.1,-18.648 -19.5,-37.379 -31.31,-56.039 39.28,-10.313 79,-17.02 118.71,-19.422 16.48,27.191 30.5,56.422 40.85,87.93" /><path
         id="path56"
         style="fill:#be4620;fill-opacity:1;fill-rule:nonzero;stroke:none"
         d="m 2427.22,581.18 c 3.38,-4.809 6.24,-9.719 8.79,-14.641 36.37,23.402 69.11,52.551 97.14,86.422 -37.74,4.258 -76.26,11.809 -115.58,23.148 -13.61,-18.019 -27.17,-34.937 -40.67,-50.339 23.68,-13.7 39.71,-29.442 50.32,-44.59" /><path
         id="path58"
         style="fill:#e8671a;fill-opacity:1;fill-rule:nonzero;stroke:none"
         d="m 2508.88,1220.82 c 27.14,-89.77 51.51,-236.23 -5.47,-390.859 3.36,0.051 6.72,-0.16 10.11,0.469 71.29,13.41 103.49,127.55 111.55,161.648 -14.24,86.292 -54.92,166.302 -116.19,228.742" /><path
         id="path60"
         style="fill:#e8671a;fill-opacity:1;fill-rule:nonzero;stroke:none"
         d="m 2321.7,940.559 h -278.59 c 100.39,-78.18 224.03,-157.688 354.76,-202.329 13.69,20.301 25.69,40.661 35.82,60.93 -43.99,29.231 -81.07,83.488 -111.99,141.399" /><path
         id="path62"
         style="fill:#e8671a;fill-opacity:1;fill-rule:nonzero;stroke:none"
         d="m 1958.94,940.559 h -72.68 C 1957.1,798.711 2093.68,702.391 2251,702.391 c 24.8,0 49.06,2.48 72.66,7.07 0.77,-0.32 1.54,-0.602 2.31,-0.922 -98.73,40.77 -201.73,102.27 -308.33,184.57 -20.76,16.032 -40.08,31.84 -58.7,47.45" /><path
         id="path64"
         style="fill:#e8671a;fill-opacity:1;fill-rule:nonzero;stroke:none"
         d="m 2402.82,1241.4 29.75,-149.21 0.05,-0.25 0.05,-0.23 c 6.51,-33.65 -1.65,-67.37 -22.4,-92.519 -11.76,-14.261 -26.75,-24.902 -43.86,-31.781 25.97,-49.148 56.06,-94.969 88.61,-119.359 69.59,185.269 10.1,355.179 -15.92,414.719 l -36.28,-21.37" /><path
         id="path66"
         style="fill:#be4620;fill-opacity:1;fill-rule:nonzero;stroke:none"
         d="m 2325.29,708.828 c 0.23,-0.09 0.45,-0.207 0.68,-0.289 -0.77,0.32 -1.54,0.602 -2.31,0.922 -23.6,-4.59 -47.86,-7.07 -72.66,-7.07 -157.32,0 -293.9,96.32 -364.74,238.168 h -103.91 c -1.29,-33.418 1.41,-66.508 7.76,-98.661 8.22,-37.488 38.32,-91.847 120.43,-140 53.82,-26.929 128.09,-46.519 227.81,-39.566 82.55,5.648 143,-1.461 187.5,-14.902 12.98,14.09 26.05,29.179 39.23,45.929 -13.19,4.762 -26.45,9.95 -39.79,15.469" /><path
         id="path68"
         style="fill:#e8671a;fill-opacity:1;fill-rule:nonzero;stroke:none"
         d="m 1247.36,2494.36 14.57,13.75 44.26,0.08 2.69,2.39 5.16,21.58 -1.96,2.07 -25.55,-0.04 -2.19,-2.07 -2.78,-11.35 -28.76,-0.06 4.54,19.51 15.95,15.03 56.7,0.09 14.56,-15.48 -9.67,-40.59 -14.42,-13.73 -44.26,-0.08 -2.69,-2.4 -3.87,-16.29 57.52,0.09 -5.17,-21.74 -86.27,-0.13 11.64,49.37" /><path
         id="path70"
         style="fill:#e8671a;fill-opacity:1;fill-rule:nonzero;stroke:none"
         d="m 1410.51,2466.66 4.23,4 14.01,59.45 -3.74,3.98 -26.06,-0.04 -4.39,-4 -14.01,-59.45 3.76,-3.97 z m -60.9,-5.52 18.53,78.29 16.94,16 59.92,0.09 15,-15.95 -18.68,-78.28 -16.8,-16 -60.06,-0.11 -14.85,15.96" /><path
         id="path72"
         style="fill:#e8671a;fill-opacity:1;fill-rule:nonzero;stroke:none"
         d="m 1464.95,2466.59 19.96,0.04 16.12,67.92 -19.8,-0.04 4.95,21.09 48.73,0.08 -21.25,-89 19.98,0.02 -4.98,-21.24 -68.69,-0.12 4.98,21.25" /><path
         id="path74"
         style="fill:#e8671a;fill-opacity:1;fill-rule:nonzero;stroke:none"
         d="m 1622.41,2508.23 3.56,3.5 4.93,20.45 -2.56,2.72 -28.91,-0.04 -2.89,-2.73 -5.11,-21.24 2.54,-2.71 z m -71.76,-47.73 4.3,18.07 28.91,0.04 -2.36,-9.91 2.1,-2.24 28.75,0.06 3.9,3.67 5.82,24.77 -7.97,-7.52 -41.53,-0.07 -12.43,13.24 9.43,39.62 16.45,15.53 61.01,0.09 14.56,-15.47 -18.74,-79.25 -16.43,-15.51 -61.66,-0.11 -14.11,14.99" /><path
         id="path76"
         style="fill:#e8671a;fill-opacity:1;fill-rule:nonzero;stroke:none"
         d="m 413.695,940.559 h 43.332 l -0.011,-73.508 34.777,73.508 h 44.594 L 514.551,845.578 H 487.25 l 17.906,78.332 -37.269,-78.332 h -33.016 l -0.973,78.461 -17.914,-78.461 h -24.129 l 21.84,94.981" /><path
         id="path78"
         style="fill:#e8671a;fill-opacity:1;fill-rule:nonzero;stroke:none"
         d="m 572.891,940.559 h 63.968 l -4.117,-17.758 h -17.777 l -13.766,-59.469 h 17.938 l -4.114,-17.754 h -63.968 l 4.117,17.754 h 17.457 l 13.449,59.469 h -17.301 l 4.114,17.758" /><path
         id="path80"
         style="fill:#e8671a;fill-opacity:1;fill-rule:nonzero;stroke:none"
         d="m 673.363,940.559 h 30.477 l 20.879,-57.68 13.558,57.68 h 25.243 l -21.84,-94.981 h -30.157 l -20.835,59.461 -13.926,-59.461 h -25.239 l 21.84,94.981" /><path
         id="path82"
         style="fill:#e8671a;fill-opacity:1;fill-rule:nonzero;stroke:none"
         d="m 802.875,940.559 h 30.477 l 20.882,-57.68 13.559,57.68 h 25.242 l -21.84,-94.981 h -30.16 l -20.832,59.461 -13.926,-59.461 h -25.238 l 21.836,94.981" /><path
         id="path84"
         style="fill:#e8671a;fill-opacity:1;fill-rule:nonzero;stroke:none"
         d="m 932.395,940.559 h 74.905 l -4.12,-18.297 h -46.348 l -4.465,-19.141 h 41.906 l -4.125,-18.312 h -41.906 l -4.828,-20.93 h 46.977 l -4.282,-18.301 h -75.558 l 21.844,94.981" /><path
         id="path86"
         style="fill:#e8671a;fill-opacity:1;fill-rule:nonzero;stroke:none"
         d="m 1061.68,883.02 h 22.86 l -1.76,42.539 z m 3.55,57.539 h 41.91 l 8.32,-94.981 h -29.36 l -0.79,18.711 h -33.01 l -9.21,-18.711 h -28.73 l 50.87,94.981" /><path
         id="path88"
         style="fill:#e8671a;fill-opacity:1;fill-rule:nonzero;stroke:none"
         d="m 1185.92,893.891 h 29.84 l 3.24,2.621 5.57,24.5 -2.95,2.758 h -28.88 z m -17.83,46.668 h 71.58 l 15.06,-13.348 -8.6,-37.32 -15.74,-13.34 h -48.41 l -6.99,-30.973 h -28.73 l 21.83,94.981" /><path
         id="path90"
         style="fill:#e8671a;fill-opacity:1;fill-rule:nonzero;stroke:none"
         d="m 1333.71,864.02 4.05,3.441 11.66,51.211 -3.88,3.449 h -25.88 l -4.21,-3.449 -11.65,-51.211 3.88,-3.441 z m -60.28,-4.68 15.41,67.449 16.23,13.77 h 59.51 l 15.52,-13.77 -15.56,-67.449 -16.07,-13.762 h -59.68 l -15.36,13.762" /><path
         id="path92"
         style="fill:#e8671a;fill-opacity:1;fill-rule:nonzero;stroke:none"
         d="m 1432.3,864.711 h 40.31 l -4.31,-19.133 h -69.04 l 21.82,94.981 h 28.58 l -17.36,-75.848" /><path
         id="path94"
         style="fill:#e8671a;fill-opacity:1;fill-rule:nonzero;stroke:none"
         d="m 1519.81,940.559 h 63.97 l -4.11,-17.758 h -17.79 l -13.75,-59.469 h 17.92 l -4.11,-17.754 h -63.96 l 4.11,17.754 h 17.46 l 13.45,59.469 h -17.3 l 4.11,17.758" /><path
         id="path96"
         style="fill:#e8671a;fill-opacity:1;fill-rule:nonzero;stroke:none"
         d="m 1598.47,858.512 3.77,16.797 h 28.73 l -2.32,-9.77 2.01,-1.801 h 25.88 l 2.11,1.801 3.4,14.871 -1.08,0.949 -40.18,5.379 -12.88,11.434 6.63,29.039 15.74,13.348 h 56.35 l 14.58,-12.938 -3.92,-16.801 h -28.74 l 2.32,9.782 -2.17,1.929 h -24.92 l -2.11,-1.801 -3.23,-14.441 1.24,-1.109 40.02,-5.231 12.88,-11.558 -6.8,-29.461 -15.74,-13.352 h -56.99 l -14.58,12.934" /><path
         id="path98"
         style="fill:#ffffff;fill-opacity:1;fill-rule:nonzero;stroke:none"
         d="M 1933.56,1657.11 1806.62,1102 1703.47,1035.37 h -242.84 l -72.08,66.63 126.97,555.11 h 156.76 l -111.97,-490.28 c -2.29,-9.77 1.66,-15.98 13.96,-15.98 h 67.61 c 13.33,0 20.65,6.21 22.97,16.87 l 111.95,489.39 h 156.76" /><path
         id="path100"
         style="fill:#ffffff;fill-opacity:1;fill-rule:nonzero;stroke:none"
         d="m 1122.81,1524.77 -81.95,-357.94 c -2.29,-9.77 1.66,-15.98 13.94,-15.98 h 72.76 c 13.33,0 20.65,6.21 22.98,16.87 l 81.92,357.95 c 2.29,9.77 -1.62,15.96 -13.92,15.96 h -72.76 c -13.31,0 -20.66,-6.19 -22.97,-16.86 z m 209.34,132.34 72.07,-66.62 L 1292.29,1102 1189.14,1035.37 H 941.188 l -72.083,66.63 111.926,488.49 103.149,66.62 h 247.97" /><path
         id="path102"
         style="fill:#ffffff;fill-opacity:1;fill-rule:nonzero;stroke:none"
         d="M 928.492,1657.11 H 577.031 l -60.398,-264.49 h -87.219 l 60.824,-115.57 -25.121,-110.01 c 0.016,-0.02 0.039,-0.05 0.055,-0.07 l -30.051,-131.6 H 553.98 c 23.563,0 40.215,9.79 44.825,30.22 l 48.422,209.6 h 122.894 0.07 c 23.563,0 37.153,10.66 44.825,30.2 l 33.961,85.28 H 848.906 672.73 l 34.618,150.96 h 157.73 c 0.004,0 0.012,0 0.016,0 h 0.054 c 23.563,0 40.211,9.78 44.825,30.21 l 18.586,85.27 h -0.067" /><path
         id="path104"
         style="fill:#ffffff;fill-opacity:1;fill-rule:nonzero;stroke:none"
         d="m 2212.17,1375.55 c 13.32,0 20.65,6.23 22.97,16.88 l 30.06,133.24 c 2.28,9.77 -1.64,15.96 -13.93,15.96 h -91.19 L 2122,1375.55 Z m 135.5,-309.96 c 3.61,-18.66 -7.95,-30.22 -28.44,-30.22 h -130.15 l -41.37,224.72 h -52.24 l -44.97,-194.5 c -4.61,-20.43 -21.26,-30.22 -44.83,-30.22 h -118.85 l 141.98,621.74 h 336.08 l 72.06,-66.62 -60.04,-263.79 -71.91,-47.07 42.68,-214.04" /><path
         id="path106"
         style="fill:#ffffff;fill-opacity:1;fill-rule:nonzero;stroke:none"
         d="m 2488.81,1639.86 c 0,-2.76 -2.76,-3.89 -6.15,-3.89 h -2.92 v 7.61 c 0.63,0.16 1.78,0.33 3.39,0.33 3.89,0 5.68,-1.62 5.68,-4.05 z m -15.39,7.6 v -26.55 h 6.16 v 10.68 h 2.91 c 3.4,0 5.03,-1.3 5.51,-4.22 0.81,-3.06 1.29,-5.49 2.11,-6.46 h 6.63 c -0.64,0.97 -1.13,2.59 -1.94,6.63 -0.81,3.57 -2.27,5.51 -4.86,6.48 v 0.32 c 3.24,0.98 5.51,3.25 5.51,6.16 0,2.6 -1.13,4.7 -2.59,5.83 -1.94,1.13 -4.21,1.94 -9.24,1.94 -4.38,0 -7.76,-0.32 -10.2,-0.81" /><path
         id="path108"
         style="fill:#ffffff;fill-opacity:1;fill-rule:nonzero;stroke:none"
         d="m 2504.19,1634.67 c 0,-11.66 -8.58,-21.06 -20.24,-21.06 -11.99,0 -20.73,9.4 -20.73,21.23 0,11.66 8.74,21.21 20.57,21.21 11.82,0 20.4,-9.55 20.4,-21.38 z m -47.78,0.17 c 0,-15.07 12.15,-26.89 27.38,-26.89 15.39,0 27.22,11.82 27.22,26.89 0,14.73 -11.83,26.56 -27.22,26.56 -15.23,0 -27.38,-11.83 -27.38,-26.56" /><path
         id="path110"
         style="fill:#ffffff;fill-opacity:1;fill-rule:nonzero;stroke:none"
         d="M 1076.63,1753.68 1206,2312.04 h 142.85 L 1225.8,1780.82 c -4.22,-18.36 -19.39,-27.14 -40.87,-27.14 h -108.3" /><path
         id="path112"
         style="fill:#ffffff;fill-opacity:1;fill-rule:nonzero;stroke:none"
         d="m 1563.73,1780.82 -53.57,273.6 -63.14,-273.6 c -4.21,-18.36 -19.39,-27.14 -40.86,-27.14 h -98.96 l 129.37,558.36 h 133.51 l 59.37,-301.5 69.48,301.5 h 133.49 L 1703.06,1753.68 H 1598.5 c -18.69,0 -31.51,9.58 -34.77,27.14" /><path
         id="path114"
         style="fill:#ffffff;fill-opacity:1;fill-rule:nonzero;stroke:none"
         d="m 2039.61,1951.51 26.46,264.02 -93.69,-264.02 z m 155.14,329.43 -28.67,-527.26 H 2019.5 l 10.08,99.71 h -91.49 l -26.21,-73.37 c -6.05,-17.56 -18.41,-26.34 -39.89,-26.34 h -93.93 -21.83 l 48.5,120.08 177.03,438.28 h 176.44 c 23.35,0 37.08,-11.16 36.55,-31.1" /><path
         id="path116"
         style="fill:#ffffff;fill-opacity:1;fill-rule:nonzero;stroke:none"
         d="m 2219.25,1753.68 129.37,558.36 h 142.85 l -105.18,-454.65 h 146.58 l -16.93,-76.57 c -4.23,-18.36 -19.4,-27.14 -40.87,-27.14 h -255.82" /><path
         id="path118"
         style="fill:#ffffff;fill-opacity:1;fill-rule:nonzero;stroke:none"
         d="m 1017.06,2399.03 c -68.212,-65.24 -160.556,-105.45 -262.404,-105.45 -10.758,0 -21.383,0.55 -31.914,1.44 L 679.145,2104.08 H 574.91 l 75.363,-126.42 -60.835,-266.4 h 131.48 c 26.07,0 44.473,10.81 49.574,33.4 l 53.512,231.67 h 5 l 0.051,0.21 h 131.008 c 26.074,0 41.127,11.79 49.607,33.42 l 37.57,94.32 H 852.277 l 38.274,167.03 H 1065.1 c 26.08,0 44.49,10.82 49.61,33.4 l 20.57,94.32 h -118.22" /><path
         id="path120"
         style="fill:#3259b1;fill-opacity:1;fill-rule:nonzero;stroke:none"
         d="m 942.789,2592.28 28.848,43.83 1.582,-43.79 z m -115.976,-0.77 28.906,43.97 1.586,-43.92 -30.492,-0.05" /><path
         id="path122"
         style="fill:#3259b1;fill-opacity:1;fill-rule:nonzero;stroke:none"
         d="m 975.719,2539.39 -2.16,19.67 -54.512,-0.08 -11.977,-19.47 -47.3,-0.08 -1.094,19.45 -53.254,-0.08 -13.012,-19.7 -75.5,-0.12 c -23.449,-0.04 -44.781,14.22 -48.492,36.24 -1.754,10.33 -1.738,20.8 -0.051,30.82 l -18.949,-67.17 -41.602,-0.07 c 0,0 -22.043,53.03 -27.347,65.84 -3.676,-13.53 -18.02,-65.91 -18.02,-65.91 l -37.383,-0.06 28.813,105.66 -12.848,-0.02 8.739,31.15 46.816,0.07 32.769,-76.87 12.942,45.87 -12.91,-0.08 8.765,31.34 49.875,-0.11 -14.437,-50.51 c 8.875,25.74 37.039,50.9 72.008,50.96 l 56.093,-0.08 -13,-47.57 -36.414,-0.06 c 0,0 2.879,10.47 4.254,15.53 l -8.336,0.18 c -19.8,-0.04 -39.234,-29.82 -39.203,-50.3 0.035,-20.54 16.528,-24.44 20.906,-24.44 l 40.86,-0.12 49.594,75.49 -11.59,0.17 8.578,31.15 76.18,0.12 5.3,-90.05 36.934,58.79 -11.594,-0.01 8.77,31.34 75.02,0.12 8.63,-121.96 c 16.5,36.61 25.83,77.2 25.76,120.02 -0.25,159.76 -129.934,289.09 -289.703,288.83 -159.735,-0.26 -289.028,-130 -288.77,-289.77 0.258,-159.73 129.965,-288.93 289.707,-288.67 110.953,0.18 207.285,62.83 255.596,154.61 l -33.451,-0.06" /><path
         id="path124"
         style="fill:#ffffff;fill-opacity:1;fill-rule:nonzero;stroke:none"
         d="m 1016.58,2554.43 -8.63,121.96 -75.02,-0.12 -8.77,-31.34 11.594,0.01 -36.934,-58.79 -5.3,90.05 -76.18,-0.12 -8.578,-31.15 11.59,-0.17 -49.594,-75.49 -40.86,0.12 c -4.378,0 -20.871,3.9 -20.906,24.44 -0.031,20.48 19.403,50.26 39.203,50.3 l 8.336,-0.18 c -1.375,-5.06 -4.254,-15.53 -4.254,-15.53 l 36.414,0.06 13,47.57 -56.093,0.08 c -34.969,-0.06 -63.133,-25.22 -72.008,-50.96 l 14.437,50.51 -49.875,0.11 -8.765,-31.34 12.91,0.08 -12.942,-45.87 -32.769,76.87 -46.816,-0.07 -8.739,-31.15 12.848,0.02 -28.813,-105.66 37.383,0.06 c 0,0 14.344,52.38 18.02,65.91 5.304,-12.81 27.347,-65.84 27.347,-65.84 l 41.602,0.07 18.949,67.17 c -1.687,-10.02 -1.703,-20.49 0.051,-30.82 3.711,-22.02 25.043,-36.28 48.492,-36.24 l 75.5,0.12 13.012,19.7 53.254,0.08 1.094,-19.45 47.3,0.08 11.977,19.47 54.512,0.08 2.16,-19.67 33.451,0.06 z m -73.791,37.85 28.848,43.83 1.582,-43.79 z m -115.976,-0.77 28.906,43.97 1.586,-43.92 -30.492,-0.05" /><path
         id="path126"
         style="fill:#3259b1;fill-opacity:1;fill-rule:nonzero;stroke:none"
         d="m 1043.03,2482.25 c 0,-2.76 -2.75,-3.89 -6.15,-3.89 h -2.92 v 7.61 c 0.64,0.16 1.79,0.33 3.4,0.33 3.89,0 5.67,-1.62 5.67,-4.05 z m -15.38,7.61 v -26.56 h 6.16 v 10.68 h 2.9 c 3.4,0 5.03,-1.29 5.51,-4.21 0.81,-3.07 1.29,-5.5 2.12,-6.47 h 6.63 c -0.64,0.97 -1.14,2.59 -1.95,6.63 -0.8,3.57 -2.26,5.51 -4.85,6.48 v 0.32 c 3.24,0.98 5.51,3.25 5.51,6.17 0,2.59 -1.13,4.69 -2.59,5.83 -1.95,1.13 -4.21,1.94 -9.24,1.94 -4.38,0 -7.77,-0.32 -10.2,-0.81" /><path
         id="path128"
         style="fill:#3259b1;fill-opacity:1;fill-rule:nonzero;stroke:none"
         d="m 1058.42,2477.07 c 0,-11.67 -8.59,-21.07 -20.25,-21.07 -11.98,0 -20.72,9.4 -20.72,21.22 0,11.67 8.74,21.23 20.57,21.23 11.81,0 20.4,-9.56 20.4,-21.38 z m -47.79,0.15 c 0,-15.06 12.16,-26.88 27.39,-26.88 15.38,0 27.21,11.82 27.21,26.88 0,14.74 -11.83,26.57 -27.21,26.57 -15.23,0 -27.39,-11.83 -27.39,-26.57" /></g></g></svg>