<?xml version="1.0" encoding="utf-8"?>
<!-- Generator: Adobe Illustrator 24.0.2, SVG Export Plug-In . SVG Version: 6.00 Build 0)  -->
<svg version="1.1"
	 id="svg2" xmlns:cc="http://creativecommons.org/ns#" xmlns:dc="http://purl.org/dc/elements/1.1/" xmlns:rdf="http://www.w3.org/1999/02/22-rdf-syntax-ns#" xmlns:svg="http://www.w3.org/2000/svg"
	 xmlns="http://www.w3.org/2000/svg" xmlns:xlink="http://www.w3.org/1999/xlink" x="0px" y="0px" viewBox="0 0 277.3 227.1"
	 style="enable-background:new 0 0 277.3 227.1;" xml:space="preserve">
<style type="text/css">
	.st0{fill:#17191D;}
	.st1{fill:#FFFFFF;}
	.st2{fill:#F47116;}
	.st3{fill:#D71A34;}
	.st4{fill:#3259B1;}
	.st5{fill:#DDD199;}
</style>
<g id="g10" transform="matrix(1.3333333,0,0,-1.3333333,0,227.09333)">
	<g id="g12" transform="scale(0.1)">
		<path id="path14" class="st0" d="M639.8,178.8h-226l28.8,90.1L353.9,483l-44.5-88L15.8,1106.1l350.9,145.1l80,193.2l592.9,245.6
			l592.9-245.6l80-193.2l350.9-145.1L1770,395l-44.5,88l-88.7-214.2l28.8-90.1h-226.1L1039.7,13.1L639.8,178.8"/>
		<path id="path16" class="st1" d="M1039.7,1703.2l-9.3-3.8l-583.6-241.7l-9.3-3.8l-3.8-9.3l-76.2-183.9L22.4,1122L0,1112.7
			l9.3-22.4l278.8-675.4l20.2-49l23.9,47.3l20.6,40.8l76.9-185.6l-22.4-70l-10.1-31.7h33.3h207l393-162.8l9.3-3.8l9.3,3.8l393,162.8
			h207h33.3l-10.1,31.7l-22.4,70l76.9,185.6l20.6-40.8l23.9-47.3l20.2,49l278.8,675.4l9.3,22.4l-22.4,9.3l-335.1,138.6l-76.2,183.9
			l-3.8,9.3l-9.3,3.8L1049,1699.4L1039.7,1703.2L1039.7,1703.2z M1039.7,1676.9l583.6-241.7l80-193.2l344.4-142.4l-278.8-675.4
			l-44.5,88l-100.5-242.7l25.1-78.5h-211.8L1039.7,26.3l0,0l0,0L642.3,190.9H430.4l25.1,78.5L355,512.1l-44.5-88L31.7,1099.6
			L376.1,1242l80,193.2L1039.7,1676.9"/>
		<path id="path18" class="st2" d="M1606.6,1283.9l-40.1,96.8L1223,1523.1l29.7-92.8L1606.6,1283.9"/>
		<path id="path20" class="st2" d="M1512.3,619l76.4-238.8l98.9,238.8H1512.3z"/>
		<path id="path22" class="st3" d="M1512.3,619l31.2-97.6l22.2-4.6v47.8l81.1-44.2l40.9,98.6L1512.3,619"/>
		<path id="path24" class="st2" d="M566.5,619H391.2l98.8-238.6L566.5,619z"/>
		<path id="path26" class="st3" d="M513.2,564.5v-47.8l22.1,4.6l31.2,97.6H391.2l40.9-98.6L513.2,564.5"/>
		<path id="path28" class="st4" d="M1143.5,1321.3l15.9,24.3l0.9-24.2L1143.5,1321.3z M1079.4,1320.9l16,24.3l0.9-24.3
			L1079.4,1320.9"/>
		<path id="path30" class="st4" d="M1161.8,1292.1l-1.2,10.9l-30.2,0l-6.6-10.8l-26.2,0l-0.6,10.8l-29.5-0.1l-7.2-10.9l-41.8-0.1
			c-13,0-24.8,7.9-26.8,20.1c-1,5.7-1,11.5,0,17l-10.5-37.2l-23,0c0,0-12.2,29.3-15.1,36.4c-2-7.5-10-36.5-10-36.5l-20.7,0
			l15.9,58.5l-7.1,0l4.8,17.2l25.9,0l18.1-42.5l7.2,25.4l-7.1,0l4.9,17.3l27.6-0.1l-8-27.9c4.9,14.2,20.5,28.2,39.8,28.2l31,0
			l-7.2-26.3l-20.2,0c0,0,1.6,5.8,2.4,8.6l-4.6,0.1c-11,0-21.7-16.5-21.7-27.8c0-11.4,9.1-13.5,11.6-13.5l22.6-0.1l27.4,41.8
			l-6.4,0.1l4.8,17.2l42.2,0.1l2.9-49.8l20.4,32.5l-6.4,0l4.9,17.3l41.5,0.1l4.8-67.5c9.1,20.3,14.3,42.7,14.2,66.4
			c-0.1,88.4-71.9,159.9-160.3,159.8c-88.4-0.2-159.9-71.9-159.8-160.3c0.1-88.4,71.9-159.9,160.3-159.7
			c61.4,0.1,114.7,34.8,141.4,85.5L1161.8,1292.1"/>
		<path id="path32" class="st1" d="M1184.4,1300.4l-4.8,67.5l-41.5-0.1l-4.9-17.3l6.4,0l-20.4-32.5l-2.9,49.8l-42.2-0.1l-4.8-17.2
			l6.4-0.1l-27.4-41.8l-22.6,0.1c-2.4,0-11.5,2.2-11.6,13.5c0,11.3,10.7,27.8,21.7,27.8l4.6-0.1c-0.8-2.8-2.4-8.6-2.4-8.6l20.2,0
			l7.2,26.3l-31,0c-19.4,0-34.9-13.9-39.8-28.2l8,27.9l-27.6,0.1l-4.9-17.3l7.1,0l-7.2-25.4l-18.1,42.5l-25.9,0l-4.8-17.2l7.1,0
			l-15.9-58.5l20.7,0c0,0,7.9,29,10,36.5c2.9-7.1,15.1-36.4,15.1-36.4l23,0l10.5,37.2c-0.9-5.5-0.9-11.3,0-17
			c2.1-12.2,13.9-20.1,26.8-20.1l41.8,0.1l7.2,10.9l29.5,0.1l0.6-10.8l26.2,0l6.6,10.8l30.2,0l1.2-10.9l18.5,0L1184.4,1300.4z
			 M1143.5,1321.3l15.9,24.3l0.9-24.2L1143.5,1321.3z M1079.4,1320.9l16,24.3l0.9-24.3L1079.4,1320.9"/>
		<path id="path38" class="st1" d="M327.1,989.9v-40l-15.4-14.2h-55.8l-0.2-98.3l-15.4-14.2H192v291.6h142.7l0.4-40l-15.4-14.2
			h-64.2l0-70.8H327.1"/>
		<path id="path40" class="st1" d="M364.4,823.3l-0.2,291.6H428l0.2-277.4l-15.4-14.2L364.4,823.3"/>
		<path id="path42" class="st1" d="M579,837.5l-52.3,142.9l0.2-142.9l-15.4-14.2h-44.2l-0.2,291.6h59.6l57.8-157.5l-0.3,157.5h59.6
			l0.2-291.6h-46.7L579,837.5"/>
		<path id="path44" class="st1" d="M773.6,926.6L758,1064.5l-14.4-137.9H773.6z M808.7,1098.7l41.9-275.3h-65.4l-5.8,52.1h-40.8
			l-4.1-38.3l-15.1-13.7h-51.7l42.7,291.6h78.7L808.7,1098.7"/>
		<path id="path46" class="st1" d="M874.3,823.3l-0.2,291.6h63.7l0.2-237.4h65.4l0.4-40l-15.4-14.2H874.3"/>
		<path id="path48" class="st1" d="M1247.8,989.9v-40l-15.4-14.2h-55.8l-0.2-98.3l-15.4-14.2h-48.3l-0.2,291.6h142.9l0.4-40
			l-15.4-14.2h-64.2l0-70.8H1247.8"/>
		<path id="path50" class="st1" d="M1346.7,1052.8l0-167.9l7.2-7.5h29.6l7.8,7.9l0,167.9l-7.2,7.5h-29.6L1346.7,1052.8z
			 M1419.4,1114.9l35.5-31.2V854.6l-35.7-31.2h-100.8l-35.5,31.2l0,229.1l35.7,31.2L1419.4,1114.9"/>
		<path id="path52" class="st1" d="M1664,1114.9l0.1-260.3l-35.7-31.2h-98.7l-35.5,31.2l-0.1,260.3h63.7l0.2-229.9l7.2-7.5h27.5
			l7.8,7.9l-0.1,229.5H1664"/>
		<path id="path54" class="st1" d="M1803.5,982.9l7.8,7.9l-0.2,62.5l-7.1,7.5h-37.1l0-77.9H1803.5z M1887.4,837.5l-8.8-14.2h-52.9
			L1788,928.7h-21.3l-0.2-91.2l-15.4-14.2h-48.3l-0.2,291.6h136.6l35.5-31.2l0.2-123.7l-24.8-22.1L1887.4,837.5"/>
		<path id="path56" class="st5" d="M1833.9,835h38.1l2.3,3.7l-38.1,102.5l19.3,17.2h-141.1l0.1-123.4h32l8.3,7.6l0.2,97.8h41.2
			L1833.9,835"/>
		<path id="path58" class="st5" d="M1533.9,835h89.9l28.4,24.8l0,98.6h-40.3l0-77.9l-14.6-14.8h-37.4l-13.9,14.5l-0.1,78.2h-40.3
			l0-98.6L1533.9,835"/>
		<path id="path60" class="st5" d="M1322.7,835h92l28.4,24.8v98.6h-40.3l0-77.9l-14.6-14.8h-39.5l-13.8,14.5l0,78.2h-40.3v-98.6
			L1322.7,835"/>
		<path id="path62" class="st5" d="M1124.2,835h32l8.3,7.6l0.2,104.9h58.4l8.8,8v2.9h-107.7L1124.2,835"/>
		<path id="path64" class="st5" d="M885.9,835h97.8l8.2,7.5l-0.2,23.1h-65.5l-0.1,92.8h-40.3L885.9,835"/>
		<path id="path66" class="st5" d="M795.5,835h41.3L818,958.5h-36.3l4.9-43.6h-56.1l4.6,43.6h-35.8L681.1,835h33.5l8.4,7.7l4.7,44.4
			h61.9L795.5,835"/>
		<path id="path68" class="st5" d="M601.1,835H632L632,958.5h-36l0.1-40.6l-9.9,0.1l-14.8,40.5H547l41.6-113.8L601.1,835"/>
		<path id="path70" class="st5" d="M478.9,835h27.9l8.2,7.6l-0.2,115.9h-36L478.9,835"/>
		<path id="path72" class="st5" d="M376,835h32l8.3,7.6l-0.1,115.9h-40.3L376,835"/>
		<path id="path74" class="st5" d="M203.5,835h32l8.3,7.6l0.2,104.9h58.4l8.7,8v2.9H203.4L203.5,835"/>
		<path id="path76" class="st2" d="M1264.5,619l303-334.3L1392.3,619H1264.5z"/>
		<path id="path78" class="st3" d="M1264.5,619l303-334.3l-198.7,275.2l61.6-13.5l-38.1,72.6H1264.5"/>
		<path id="path80" class="st2" d="M810.9,619L508,284.7L683.2,619H810.9z"/>
		<path id="path82" class="st3" d="M810.9,619L508,284.7l198.7,275.2l-61.6-13.5l38,72.6H810.9"/>
		<path id="path88" class="st4" d="M800.6,1350.6l-459.3-189.9l434.4,111.9L800.6,1350.6z"/>
		<path id="path90" class="st4" d="M1278.2,1350.6l459.3-189.9l-434.4,111.9L1278.2,1350.6z"/>
		<path id="path92" class="st4" d="M800.6,1350.6l-459.3-189.9l434.4,111.9L800.6,1350.6z"/>
		<path id="path94" class="st2" d="M472.2,1283.9l40.1,96.8l343.5,142.3l-29.6-92.8L472.2,1283.9"/>
		<path id="path96" class="st4" d="M1602.5,746h225l-47.9-123.6l-51,95.6h-126.2V746"/>
		<path id="path98" class="st4" d="M476.3,746h-225l47.9-123.6l51,95.6h126.2V746"/>
		<path id="path100" class="st5" d="M1174.3,714.3l9.1,9.1h51l0.8,0.8l1.5,8.6l-1.2,1.2h-35.8l-1.2-1.2l-0.7-3.4h-20.6l1.3,7.2
			l9.5,9.5h59.4l10.3-10.3l-2.7-15.4l-9.1-9.1h-51l-0.8-0.8l-1.5-8.3h59.1l-2.1-12.1h-79.7L1174.3,714.3"/>
		<path id="path102" class="st5" d="M1323.8,702.7l4.6,4.5l3.8,21.7l-4.5,4.5h-33.4l-4.5-4.5l-3.8-21.7l4.5-4.5H1323.8z
			 M1264.2,701.2l5.9,33.7l11.1,11.1h61.4l11.1-11.1l-5.9-33.7l-11.1-11.1h-61.5L1264.2,701.2"/>
		<path id="path104" class="st5" d="M1362.5,714.3l9.1,9.1h51l0.8,0.8l1.5,8.6l-1.2,1.2h-35.8l-1.2-1.2l-0.7-3.4h-20.6l1.3,7.2
			l9.5,9.5h59.4l10.3-10.3l-2.7-15.4l-9.1-9.1h-51l-0.8-0.8l-1.4-8.3h59.1l-2.1-12.1h-79.7L1362.5,714.3"/>
		<path id="path106" class="st5" d="M1512,702.7l4.5,4.5l3.8,21.7l-4.5,4.5h-33.4l-4.5-4.5l-3.8-21.7l4.5-4.5H1512z M1452.5,701.2
			l5.9,33.7l11.1,11.1h61.5l11.1-11.1l-5.9-33.7l-11.1-11.1h-61.5L1452.5,701.2"/>
		<path id="path108" class="st5" d="M742.1,746h-20.6l-9.8-56h61.7l2.3,13h-41.1L742.1,746"/>
		<path id="path110" class="st5" d="M635.2,746l-2.3-13h28l-7.6-43h20.6l7.6,43h28l2.3,13H635.2"/>
		<path id="path112" class="st5" d="M1049.5,746h-76.5l-2.3-13h28l-7.6-43h20.6l7.6,43h28L1049.5,746"/>
		<path id="path114" class="st5" d="M937.4,703.8L916.8,746H887l-9.9-56h18.4l7.5,42.4l20.5-42.4h29.8l9.9,56h-18.4L937.4,703.8"/>
		<path id="path116" class="st5" d="M1075.9,713l15.7,22.5l8-22.5H1075.9z M1108,746h-29.3l0,0l0,0h-9.2l1.6-10.5l-33-45.5h21.8
			l7.2,10.4h37l3.7-10.4h21.7L1108,746"/>
		<path id="path118" class="st5" d="M815.1,713l15.7,22.5l8-22.5H815.1z M847.2,746h-29.3l0,0l0,0h-9.2l1.6-10.5l-33-45.5h21.8
			l7.2,10.4h37l3.7-10.4h21.6L847.2,746"/>
		<path id="path120" class="st5" d="M575.1,713l15.7,22.5l8-22.5H575.1z M607.2,746H578h0h0h-9.2l1.6-10.5l-33-45.5h21.8l7.2,10.4
			h37l3.7-10.4h21.6L607.2,746"/>
		<path id="path122" class="st4" d="M1507.4,261.7l-202.7,105.7c-2-37.8-11.9-73.5-28.1-105.4l108.3-0.1l-34.4,35.8L1507.4,261.7"/>
		<path id="path124" class="st4" d="M802.8,261.9c-16.2,32-26.1,67.6-28.1,105.4L572,261.7l156.8,35.9l-34.4-35.8L802.8,261.9"/>
		<path id="path126" class="st4" d="M931.2,320.3c-15.1-13.5-28.4-30-46-45.7c-8.8-7.8-19-15.2-30.9-20.4c-4.2-1.8-8.5-3.3-13-4.5
			c39.6-59.6,105.3-100.2,180.8-105.7l1.5,216.9c-14.8-1.4-29.3-4.3-42.8-9.4C962.5,344.7,946.1,333.9,931.2,320.3z M1194.1,274.6
			c-17.6,15.6-30.9,32.1-45.9,45.7c-14.9,13.7-31.3,24.4-49.6,31.3c-13.5,5.1-28,8-42.8,9.4l1.5-216.9
			c75.5,5.5,141.2,46.1,180.8,105.7c-4.4,1.2-8.8,2.6-13,4.5C1213.1,259.4,1202.9,266.8,1194.1,274.6L1194.1,274.6z M1274.3,387.5
			c-4.4,2.8-9,5.5-13.7,8c-4.7,2.5-9.4,5-14.2,7.3c-4.8,2.4-9.7,4.6-14.6,6.7c-19.7,8.5-40.3,15.2-61.2,20.9
			c-10.6,2.3-21,5.1-31.8,6.8c-5.3,0.9-10.7,2-16,2.8l-16.2,2.1l-8.1,1l-8.1,0.6l-16.3,1.2c-6.4,0.3-12.7,0.4-19.1,0.5l0.4-58.6
			c17.5-0.9,35.1-3.6,52.1-9.4c22.2-7.4,42.8-20.1,60-35c17.4-14.7,31.9-31.3,47-43.7c12.9-10.9,26-17,40.6-18.3
			c14.4,30.7,22.5,64.9,22.5,101c0,1.3-0.1,2.6-0.1,3.9C1276.5,386.1,1275.4,386.8,1274.3,387.5z M911.7,563
			c-4.2,3.5-8.2,7.2-12.1,10.9c-12.4-9-23.9-19.2-34.3-30.4l0.1,0.2L671.3,352.4l131.1,68.9c0,0,0,0,0,0c0.4,0.2,0.8,0.4,1.3,0.6
			l1.6,0.8l0.1,0.3c0-0.1,0-0.2,0-0.3c0.8,0.4,1.6,0.8,2.3,1.2c5.2,2.6,10.5,5.1,15.8,7.4c5.3,2.4,10.7,4.6,16.1,6.7
			c21.5,8.5,43.6,15.3,65.9,20.7c11.2,2.4,22.4,5.2,33.7,6.9c5.7,0.9,11.3,2,17,2.8l17,2.1l8.5,1.1l8.6,0.7l17.1,1.3
			c5.7,0.4,11.4,0.6,17.1,0.8l0.3,44.1c-17.8,0.8-35.7,3.6-53.1,9.4C949.5,535.4,928.9,548.1,911.7,563L911.7,563z M992.7,443.8
			l-8.1-0.6l-8.1-1l-16.2-2.1c-5.4-0.8-10.7-1.9-16-2.8c-10.7-1.7-21.2-4.5-31.8-6.8c-20.9-5.7-41.4-12.4-61.2-20.9
			c-4.9-2.1-9.8-4.3-14.6-6.7c-4.9-2.3-9.6-4.8-14.2-7.3c-4.7-2.6-9.2-5.3-13.6-8c-2.2-1.4-4.4-2.8-6.5-4.2
			c-0.2-0.2-0.5-0.3-0.7-0.5c0-0.5,0-0.9,0-1.4c0-36.1,8.1-70.3,22.5-101c14.5,1.3,27.7,7.4,40.6,18.3c15.1,12.4,29.6,29,47,43.7
			c17.2,14.9,37.8,27.6,60,35c17.1,5.7,34.7,8.5,52.1,9.4l0.4,58.6c-5.1-0.1-10.2-0.2-15.3-0.4L992.7,443.8z M1092.9,472.4l8.5-0.7
			l8.5-1.1l17-2.1c5.7-0.8,11.3-1.9,17-2.8c11.3-1.7,22.5-4.5,33.7-6.9c22.3-5.5,44.4-12.3,65.9-20.7c5.4-2.1,10.8-4.3,16.1-6.7
			c4.7-2,9.4-4.3,14-6.5c0,0.1,0,0.1,0,0.2l0.1-0.3l0.3-0.2c0.5-0.2,1-0.5,1.4-0.7c0.6-0.3,1.3-0.7,1.9-1c0-0.1,0-0.1,0-0.2
			l131.4-70.5l-194.9,191.2l0.1-0.2c-10.4,11.2-21.9,21.4-34.3,30.4c-3.9-3.7-7.9-7.3-12.1-10.9c-17.2-14.9-37.8-27.6-60-35
			c-17.4-5.8-35.3-8.6-53.1-9.4l0.3-44c7-0.2,13.9-0.4,20.9-0.9L1092.9,472.4"/>
		<path id="path128" class="st3" d="M936.9,309.1c-14.1-13.4-26.5-29.6-43-45.1c-2.3-2.2-4.8-4.3-7.4-6.4
			c35-36.1,82.7-59.9,136-64.1l1.1,156.4c-13.9-1.4-27.4-4.4-40-9.4C966.2,333.5,950.8,322.7,936.9,309.1z M1142.5,309.1
			c-13.9,13.5-29.3,24.4-46.7,31.4c-12.6,5-26.1,7.9-40,9.4l1.1-156.4c53.2,4.3,100.9,28,135.9,64.1c-2.6,2.1-5,4.3-7.4,6.4
			C1169,279.5,1156.6,295.7,1142.5,309.1z M903.1,550.3c-3.9,3.1-7.6,6.2-11.3,9.4c-34.1-32.8-57.2-76.8-63.6-126.2
			c3.8,1.6,7.6,3.2,11.4,4.6c21.5,8.5,43.6,15.3,65.9,20.7c11.2,2.4,22.4,5.2,33.7,6.9c5.7,0.9,11.3,2,17,2.8l17,2.1l8.5,1.1
			l8.6,0.7l17.1,1.3c5.7,0.4,11.4,0.6,17.1,0.8l0.2,32.3c-19,0.7-38.1,3.3-56.8,9C944.3,522.8,922,535.3,903.1,550.3z M1250.2,384.6
			c-4.4,2.5-8.8,5-13.4,7.2c-4.5,2.4-9.2,4.6-13.8,6.7c-18.7,8.5-38.2,15.3-58.1,20.9c-10.1,2.3-20.1,5.2-30.3,6.9
			c-5.1,0.9-10.2,2-15.3,2.8l-15.4,2.1l-7.7,1l-7.8,0.6l-15.5,1.2c-5.8,0.3-11.7,0.4-17.6,0.5l0.3-47.7c17.5-0.9,35.1-3.6,52.1-9.4
			c22.2-7.4,42.8-20.1,60-35c17.4-14.7,31.9-31.3,47-43.7c2.1-1.8,4.2-3.4,6.4-4.9c16.5,26.6,27.4,57.1,30.8,89.8
			C1251.3,383.9,1250.8,384.3,1250.2,384.6L1250.2,384.6z M994.9,432.8l-7.8-0.6l-7.7-1l-15.4-2.1c-5.1-0.8-10.2-1.9-15.3-2.8
			c-10.2-1.7-20.2-4.5-30.3-6.9c-19.9-5.6-39.4-12.4-58.1-20.9c-4.7-2.1-9.3-4.3-13.8-6.7c-4.6-2.3-9-4.7-13.5-7.2
			c-1.7-1-3.4-2.1-5.2-3.1c3.7-31.9,14.4-61.7,30.6-87.7c2.1,1.5,4.2,3.1,6.4,4.9c15.1,12.4,29.6,29,47,43.7
			c17.2,14.9,37.8,27.6,60,35c17.1,5.7,34.7,8.5,52.1,9.4l0.3,47.6c-4.6-0.1-9.2-0.2-13.8-0.4L994.9,432.8z M1092.9,472.4l8.5-0.7
			l8.5-1.1l17-2.1c5.7-0.8,11.3-1.9,17-2.8c11.3-1.7,22.5-4.5,33.7-6.9c22.3-5.5,44.4-12.3,65.9-20.7c2.5-1,4.9-1.9,7.4-3
			c-6.7,48.6-29.8,92-63.4,124.4c-3.7-3.2-7.4-6.3-11.3-9.3c-18.9-15-41.2-27.4-64.8-34.5c-18.7-5.7-37.8-8.3-56.8-9l0.2-32.1
			c7-0.2,13.9-0.4,20.9-0.9L1092.9,472.4"/>
		<path id="path130" class="st2" d="M936.9,309.1c-6-5.7-11.7-11.9-17.5-18.3c28.5-24.1,64.2-39.8,103.5-43.3l0.7,102.4
			c-13.9-1.4-27.4-4.4-40-9.4C966.2,333.5,950.8,322.7,936.9,309.1z M1134.5,426.3c-5.1,0.9-10.2,2-15.3,2.8l-15.4,2.1l-7.7,1
			l-7.8,0.6l-15.5,1.2c-5.8,0.3-11.7,0.4-17.6,0.5l0.3-47.7c17.5-0.9,35.1-3.6,52.1-9.4c22.2-7.4,42.8-20.1,60-35
			c7.7-6.5,14.8-13.4,21.7-20.2c16.4,22.2,28.1,48.1,33.4,76.3c-18.7,8.5-38.2,15.2-58,20.8C1154.7,421.7,1144.7,424.6,1134.5,426.3
			L1134.5,426.3z M994.9,432.8l-7.8-0.6l-7.7-1l-15.4-2.1c-5.1-0.8-10.2-1.9-15.3-2.8c-10.2-1.7-20.2-4.5-30.3-6.9
			c-19.9-5.6-39.4-12.4-58.1-20.9c-1.1-0.5-2.2-1-3.4-1.6c5.4-27.6,17-52.9,33.1-74.7c6.9,6.7,14,13.6,21.7,20.2
			c17.2,14.9,37.8,27.6,60,35c17.1,5.7,34.7,8.5,52.1,9.4l0.3,47.6c-4.6-0.1-9.2-0.2-13.8-0.4L994.9,432.8z M1095.8,340.5
			c-12.6,5-26.1,7.9-40,9.4l0.7-102.4c39.3,3.5,75,19.2,103.5,43.3c-5.8,6.4-11.5,12.6-17.5,18.3
			C1128.6,322.7,1113.2,333.5,1095.8,340.5z M1092.9,472.4l8.5-0.7l8.5-1.1l17-2.1c5.7-0.8,11.3-1.9,17-2.8
			c11.3-1.7,22.5-4.5,33.7-6.9c16.2-3.9,32.2-8.6,47.9-14.1c-2.6,41.7-18.9,79.7-44.4,109.5c-1.6-1.3-3.3-2.7-4.9-4
			c-18.9-15-41.2-27.4-64.8-34.5c-18.7-5.7-37.8-8.3-56.8-9l0.2-32.1c7-0.2,13.9-0.4,20.9-0.9L1092.9,472.4z M903.1,550.3
			c-1.7,1.3-3.3,2.7-4.9,4c-25.8-30.1-42.2-68.6-44.5-110.9c17,6.1,34.3,11.2,51.8,15.5c11.2,2.4,22.4,5.2,33.7,6.9
			c5.7,0.9,11.3,2,17,2.8l17,2.1l8.5,1.1l8.6,0.7l17.1,1.3c5.7,0.4,11.4,0.6,17.1,0.8l0.2,32.3c-19,0.7-38.1,3.3-56.8,9
			C944.3,522.8,922,535.3,903.1,550.3"/>
		<path id="path132" class="st2" d="M931.2,585.2c14.9-13.7,31.2-24.4,49.6-31.3c13.9-5.2,28.8-8.1,44.1-9.5l0.5,74.7
			c-36-2.1-69.8-12.3-99.7-28.7C927.6,588.6,929.4,586.8,931.2,585.2z M1053.9,619l0.5-74.7c15.3,1.3,30.2,4.3,44.1,9.5
			c18.4,6.9,34.8,17.7,49.6,31.3c1.8,1.7,3.6,3.4,5.4,5.2C1123.7,606.7,1089.9,616.9,1053.9,619"/>
	</g>
</g>
</svg>
