<?xml version="1.0" encoding="utf-8"?>
<!-- Generator: Adobe Illustrator 24.0.2, SVG Export Plug-In . SVG Version: 6.00 Build 0)  -->
<svg version="1.1"
	 id="svg2" xmlns:cc="http://creativecommons.org/ns#" xmlns:dc="http://purl.org/dc/elements/1.1/" xmlns:rdf="http://www.w3.org/1999/02/22-rdf-syntax-ns#" xmlns:svg="http://www.w3.org/2000/svg"
	 xmlns="http://www.w3.org/2000/svg" xmlns:xlink="http://www.w3.org/1999/xlink" x="0px" y="0px" viewBox="0 0 290.4 237.9"
	 style="enable-background:new 0 0 290.4 237.9;" xml:space="preserve">
<style type="text/css">
	.st0{fill:#D71A34;}
</style>
<g id="g10" transform="matrix(1.3333333,0,0,-1.3333333,0,227.09333)">
	<g id="g12" transform="scale(0.1)">
		<path id="path14" class="st0" d="M688.8,138.3h-226l28.8,90.1l-88.7,214.1l-44.5-88L64.8,1065.6l350.9,145.1l80,193.2l592.9,245.6
			l592.9-245.6l80-193.2l350.9-145.1L1819,354.5l-44.5,88l-88.7-214.2l28.8-90.1h-226.1L1088.7-27.4L688.8,138.3"/>
		<g>
			<g id="path16">
				<path class="st0" d="M1088.7,1662.7l-9.3-3.8l-583.6-241.7l-9.3-3.8l-3.8-9.3l-76.2-183.9L71.4,1081.5l-22.4-9.3l9.3-22.4
					l278.8-675.4l20.2-49l23.9,47.3l20.6,40.8l76.9-185.6l-22.4-70l-10.1-31.7h33.3h207l393-162.8l9.3-3.8l9.3,3.8l393,162.8h207
					h33.3l-10.1,31.7l-22.4,70l76.9,185.6l20.6-40.8l23.9-47.3l20.2,49l278.8,675.4l9.3,22.4l-22.4,9.3l-335.1,138.6l-76.2,183.9
					l-3.8,9.3l-9.3,3.8L1098,1658.9L1088.7,1662.7L1088.7,1662.7z M1088.7,1636.4l583.6-241.7l80-193.2l344.4-142.4l-278.8-675.4
					l-44.5,88L1672.9,229l25.1-78.5h-211.8L1088.7-14.2l0,0l0,0L691.3,150.4H479.4l25.1,78.5L404,471.6l-44.5-88L80.7,1059.1
					l344.4,142.4l80,193.2L1088.7,1636.4"/>
				<path class="st0" d="M1088.8-80.9l-23.5,9.6l-386.3,160H394.9l43.9,137.5l-40.4,97.4l-44.6-88.2L0,1092.4l57,23.7l320.8,132.8
					l79.9,193.2l23.9,9.8l607.1,251.3l23.5-9.6l607.7-251.6l9.8-23.9l70.2-169.4l377.8-156.4l-23.7-57l-330.2-800l-44.6,88.3
					l-40.4-97.4l43.9-137.5h-284.1L1088.8-80.9z M530.8,187.9h168l389.9-161.5l390,161.6h167.9l-13.6,42.7l137,330.9l44.5-87.9
					l233.3,565.1l-324.1,134l-80,193.2l-554.9,229.8L533.8,1366l-80-193.2l-324.1-134L363,473.5l44.4,87.9l137-330.8L530.8,187.9z"
					/>
			</g>
		</g>
	</g>
</g>
</svg>
