<?xml version="1.0" encoding="utf-8"?>
<!-- Generator: Adobe Illustrator 25.0.1, SVG Export Plug-In . SVG Version: 6.00 Build 0)  -->
<svg version="1.1" id="Layer_1" xmlns="http://www.w3.org/2000/svg" xmlns:xlink="http://www.w3.org/1999/xlink" x="0px" y="0px"
	 viewBox="0 0 250 106.7" style="enable-background:new 0 0 250 106.7;" xml:space="preserve">
<style type="text/css">
	.st0{fill:#C9CFD2;}
	.st1{fill:#005EB8;}
	.st2{fill:#FFFFFF;}
	.st3{fill:#707A84;}
</style>
<g transform="matrix(.75679 0 0 .75679 -.047147 -.062389)">
	<path class="st0" d="M275.3,1.6L274,8.5l-203.7,0C66,6.4,61.2,5.3,56.4,5.3c-8.5,0-16.6,3.3-22.6,9.4c-0.7,0.7-1.4,1.5-2.1,2.3
		c-1.3,1.6-2.5,3.3-3.5,5.1c-0.5,0.9-1,1.9-1.4,2.8c-1.7,4-2.5,8.1-2.5,12.5c0,4.3,0.8,8.5,2.5,12.5c0.2,0.4,4,10,7.8,19.5H14.2
		L1.6,139.9h54.1l1.2-6.9l236.8,0l22.6-22.3l7-41.6l-5.1-5.3l10.9-62.3L275.3,1.6z"/>
	<path d="M277.8,4.6l-1.2,6.9h-207C65.5,9.4,61,8.3,56.4,8.3c-7.7,0-15,3-20.5,8.5c-0.7,0.7-1.3,1.3-1.9,2.1c-1.2,1.4-2.2,3-3.1,4.6
		c-0.4,0.8-0.9,1.7-1.2,2.5c-1.5,3.6-2.3,7.4-2.3,11.3c0,3.9,0.8,7.7,2.3,11.3c0.2,0.5,5.8,14.3,9.5,23.7H16.8L5.2,136.9h47.9
		l1.1-6.3l237.9,0l21.5-21.5l6.6-38.9l-5.1-5.3l10.6-60.2L277.8,4.6z"/>
	<path class="st1" d="M285,13.7l-1.2,6.9h-31.3l-2.5,14h-6.7l-0.9,5.1h6.6l-2.5,14h31.1l-1.2,6.9h29.9l0.9-5.1h-24.7l1.6-8.7h24.6
		l0.9-5.1h-29.8l-1.2,6.9h-25.9l4.2-22.9h26.1l-1.2,6.9h29.6l0.9-5.1h-24.4l1.6-8.7h24.3l0.9-5.1L285,13.7L285,13.7z M56.3,16.7
		c-11.4,0-20.6,9.2-20.6,20.6s9.2,20.6,20.6,20.6c7.9,0,14.8-4.5,18.3-11h-2.4L72,45.5h-3.9l-0.9,1.4h-3.4l-0.1-1.4H60l-0.9,1.4
		h-5.4c-1.7,0-3.2-1-3.5-2.6c-0.1-0.7-0.1-1.5,0-2.2l-1.4,4.8l-3,0c0,0-1.6-3.8-1.9-4.7c-0.3,1-1.3,4.7-1.3,4.7H40l2.1-7.5h-0.9
		l0.6-2.2h3.3l2.3,5.5l0.9-3.3l-0.9,0l0.6-2.2l3.6,0l-1,3.6c0.6-1.8,2.6-3.6,5.1-3.6l4,0l-0.9,3.4h-2.6c0,0,0.2-0.7,0.3-1.1l-0.6,0
		c-1.4,0-2.8,2.1-2.8,3.6c0,1.5,1.2,1.7,1.5,1.7l2.9,0l3.5-5.4l-0.8,0l0.6-2.2h5.4l0.4,6.4l2.6-4.2h-0.8l0.6-2.2h5.4l0.6,8.7
		c1.2-2.6,1.9-5.5,1.9-8.6C76.9,25.9,67.7,16.7,56.3,16.7L56.3,16.7z M23.9,81.4L23,86.5h24.7l-1.6,8.7H21.5l-0.9,5.1h29.8l1.2-6.9
		h25.9l-4.2,22.9H47.4l1.2-6.9H19l-0.9,5.1h24.4l-1.6,8.7H16.6l-0.9,5.1h29.5l1.2-6.9h31.3l2.5-14h8.1l0.9-5.1h-8.1l2.5-14H52.6
		l1.2-6.9L23.9,81.4L23.9,81.4z"/>
	<path class="st2" d="M87.1,19.8l-7.4,41.8h0.4h5.7c0.7,0,1.3-0.2,1.7-0.5c0.4-0.3,0.7-0.8,0.9-1.5l4.9-27.9l-0.8,29.9h7.7
		c1.1,0,1.9-0.4,2.4-1.2c0.2-0.3,0.3-0.6,0.4-0.9l9.2-27.8l-5.3,29.9h6c0.7,0,1.3-0.2,1.7-0.5c0.4-0.3,0.7-0.8,0.9-1.5l7-39.8h-13.1
		l-9.7,29.5l0.7-27.4c0-1.3-0.6-2-2-2L87.1,19.8L87.1,19.8z M155.5,19.8l-7.3,41.8h6.9c0.3,0,0.7,0,0.9-0.1c0.3-0.1,0.5-0.2,0.8-0.4
		c0.4-0.3,0.7-0.8,0.9-1.5l2.3-13.1h3l1.4,7.6l1.4,7.6h7.6c0.7,0,1.2-0.3,1.5-0.8c0.2-0.3,0.2-0.7,0.1-1.2l-2.8-14.4l1-0.7l3.2-2.4
		l3.1-17.7l-4.3-4.5L155.5,19.8L155.5,19.8z M190.7,19.8l-5.9,4.5L179,57.2l4.3,4.5h13.6l5.9-4.5l1.6-8.8c0.1-0.7,0-1.2-0.2-1.5
		c-0.1-0.2-0.3-0.3-0.6-0.4c-0.2-0.1-0.5-0.1-0.9-0.1h-7.1l-1.1,6.5c0,0.1-0.1,0.3-0.1,0.4c-0.2,0.5-0.6,0.8-1.2,0.8h-3.3
		c-0.4,0-0.6-0.1-0.7-0.3c-0.1-0.2-0.2-0.5-0.1-0.8l4.2-24.1c0.1-0.4,0.2-0.6,0.4-0.8c0.2-0.2,0.5-0.3,0.9-0.3h3.3
		c0.7,0,1,0.4,0.8,1.1l-1.1,6.2h6.9c0.7,0,1.3-0.2,1.7-0.5c0.2-0.2,0.4-0.4,0.5-0.6c0.1-0.3,0.2-0.6,0.3-0.9l1.5-8.5l-4.3-4.5
		L190.7,19.8L190.7,19.8z M214,19.8l-3.7,20.9l-3.7,20.9h6.9c1.4,0,2.3-0.7,2.6-2l1.1-6.1l1.5-8.6h6.3l-2.9,16.7h6.9
		c1.4,0,2.3-0.7,2.6-2l7-39.8h-9.1l-1.5,8.5l-1.5,8.5h-6.3l3-17L214,19.8L214,19.8z M132,19.8l-6.7,20.9l-4.1,12.7l-2.7,8.2h7.4
		c0.3,0,0.6,0,0.9-0.1c0.5-0.2,0.9-0.5,1.2-1c0.1-0.2,0.3-0.5,0.3-0.9l1.6-5.5h5.9l-0.5,7.5h9.4l1-39.5c0-0.4-0.1-0.7-0.2-1
		c-0.1-0.3-0.3-0.5-0.5-0.7c-0.2-0.2-0.5-0.3-0.8-0.5c-0.3-0.1-0.6-0.2-1-0.2L132,19.8L132,19.8z M137.6,27.1l-1.3,19.8H132
		L137.6,27.1L137.6,27.1z M163.4,27.6h5.3c0.4,0,0.6,0.1,0.7,0.3c0.1,0.2,0.2,0.5,0.1,0.8l-1.6,9c-0.1,0.7-0.5,1.1-1.3,1.1h-5.3
		L163.4,27.6L163.4,27.6z M55.8,37.2c-2.5,0-4.5,1.8-5.1,3.6l1-3.6l-3.6,0l-0.6,2.2l0.9,0l-0.9,3.3l-2.3-5.5h-3.3l-0.6,2.2h0.9
		L40,46.9h2.7c0,0,1-3.7,1.3-4.7c0.4,0.9,1.9,4.7,1.9,4.7l3,0l1.4-4.8c-0.1,0.7-0.1,1.5,0,2.2c0.3,1.6,1.8,2.6,3.5,2.6h5.4l0.9-1.4
		h3.8l0.1,1.4h3.4l0.9-1.4H72l0.2,1.4h2.4l0.5-1.1l-0.6-8.7h-5.4l-0.6,2.2h0.8l-2.6,4.2l-0.4-6.4h-5.4l-0.6,2.2l0.8,0l-3.5,5.4
		l-2.9,0c-0.3,0-1.5-0.3-1.5-1.7c0-1.5,1.4-3.6,2.8-3.6l0.6,0c-0.1,0.4-0.3,1.1-0.3,1.1h2.6l0.9-3.4L55.8,37.2L55.8,37.2z
		 M105.9,67.9l-7.3,41.8h6c0.5,0,0.8-0.1,1.2-0.2c0.7-0.3,1.2-0.9,1.4-1.8l4.9-27.9l-0.8,29.9h7.7c0.4,0,0.7,0,1-0.1
		c0.9-0.3,1.4-0.9,1.8-2l9.2-27.8l-5.3,29.9h6c0.3,0,0.7,0,0.9-0.1c0.6-0.2,1-0.5,1.3-1c0.1-0.3,0.3-0.6,0.3-0.9l7-39.8h-13.1
		l-4.9,14.7l-4.9,14.7l0.7-27.4c0-0.7-0.1-1.2-0.5-1.5c-0.3-0.3-0.8-0.5-1.5-0.5L105.9,67.9L105.9,67.9z M150.9,67.9l-6.8,20.9
		l-6.8,20.9h7.4c0,0,0.1,0,0.1,0c0.6,0,1.1-0.2,1.5-0.5c0.4-0.3,0.7-0.8,0.9-1.5l1.6-5.5h5.9l-0.5,7.5h9.4l0.2-8l0.8-31.5
		c0-1.1-0.5-1.9-1.4-2.2c-0.3-0.1-0.6-0.2-1-0.2L150.9,67.9L150.9,67.9z M174.4,67.9l-7.4,41.8h19.5l3-2.2l3-2.2l3.2-18l2.6-14.8
		l-4.3-4.5L174.4,67.9L174.4,67.9z M204.6,67.9l-7.3,41.8h6.3c1.4,0,2.3-0.7,2.6-2l3.6-20.5l3.9,20.5c0.1,0.7,0.4,1.2,0.8,1.5
		c0.4,0.3,0.9,0.5,1.5,0.5h6.7l7.4-41.8h-8.5l-3.9,22.6l-4.3-22.6L204.6,67.9L204.6,67.9z M235.6,67.9l-3.7,20.9l-3.7,20.9h18.6
		c0.5,0,0.8-0.1,1.2-0.2c0.7-0.3,1.1-0.8,1.3-1.6c0-0.1,0-0.1,0-0.1l1-5.7h-11.7l0.8-4.8l0.8-4.8h6.6c0.7,0,1.2-0.2,1.6-0.5
		c0.4-0.3,0.7-0.9,0.9-1.5l1.9-5.7h-9.6l1.3-7.4l0.3-1.6h9.2c0.7,0,1.2-0.2,1.6-0.5c0.5-0.3,0.8-0.8,0.9-1.6l0.7-4.3l0.2-1.4
		L235.6,67.9L235.6,67.9z M265.2,67.9l-2.5,1.9l-3.4,2.6l-2.7,15.6l4.3,4.4H271l-1.5,8.4c0,0.2-0.1,0.3-0.1,0.5
		c-0.2,0.4-0.6,0.7-1.2,0.7H264c-0.7,0-1-0.4-0.8-1.1l0.5-2.7c0.1-0.3,0.1-0.6,0-0.9c-0.1-0.8-0.7-1.1-1.7-1.1h-7.1l-1.6,9.1
		l4.3,4.5H272l3-2.2l2.7-2.1l0.2-0.2l2.4-13.7l0.4-2.4l-4.3-4.5h-10.2l1.4-7.8c0.1-0.7,0.5-1.1,1.3-1.1h3.6c0.5,0,0.8,0.2,0.9,0.6
		c0,0.1,0,0.3,0,0.4l-0.3,2l-0.3,2h6.9c1.4,0,2.3-0.7,2.6-2l1.1-6.3l-2.8-3l-1.5-1.5L265.2,67.9L265.2,67.9z M294.3,67.9l-2.5,1.9
		l-3.4,2.6l-2.7,15.6l4.3,4.4h10.2l-1.5,8.4c0,0.2-0.1,0.3-0.1,0.5c-0.2,0.4-0.6,0.7-1.2,0.7h-4.2c-0.5,0-0.8-0.2-0.9-0.6
		c0-0.1,0-0.3,0-0.5l0.5-2.7c0.2-1-0.1-1.7-0.8-1.9c-0.2-0.1-0.5-0.1-0.9-0.1h-7.1l-1.6,9.1l4.3,4.5h14.5l5.9-4.5l2.9-16.1l-4.3-4.5
		h-10.2l1.4-7.8c0.1-0.3,0.2-0.6,0.3-0.7c0,0,0-0.1,0.1-0.1c0.2-0.2,0.5-0.3,0.9-0.3h3.6c0.4,0,0.7,0.2,0.8,0.4
		c0.1,0.2,0.1,0.4,0.1,0.7l-0.3,2l-0.3,2h6.9c1.4,0,2.3-0.7,2.6-2l1.1-6.3l-0.2-0.2l-4.1-4.3L294.3,67.9L294.3,67.9z M156.5,75.1
		l-1.3,19.8h-4.3L156.5,75.1L156.5,75.1z M182.2,75.6h5.3c0.4,0,0.7,0.2,0.8,0.4c0.1,0.2,0.1,0.4,0.1,0.7l-4.2,24.1
		c0,0.2-0.1,0.3-0.1,0.5c-0.2,0.4-0.6,0.7-1.2,0.7h-5.3L182.2,75.6L182.2,75.6z"/>
	<path class="st3" d="M76.4,65.8L63.6,79h8.6L85,65.8h-4.5H76.4L76.4,65.8z M90.9,65.8L78.1,79h9.1l6.2-6.3l6.7-6.8h-6.8L90.9,65.8
		L90.9,65.8z M203.9,114.2c-0.1,0-0.2,0-0.3,0h-6.3h-2.8l-7.4,7.4h1.5h8.1L203.9,114.2L203.9,114.2z M225.8,114.2l-7.2,7.4h19.1
		l7.2-7.4h-16.6h-1.8H225.8L225.8,114.2z M94.9,114.2l-7.4,7.4h2.2h6.2l7.3-7.4h-4.6L94.9,114.2L94.9,114.2z M108,114.2l-7.4,7.4
		h3.4h6.6l7.3-7.4h-6.7C111.3,114.2,108,114.2,108,114.2z M122.8,114.2l-7.4,7.4h1.5h5.6h1.1l7.3-7.4h-5.1
		C125.8,114.2,122.8,114.2,122.8,114.2z M135.8,114.2l-7.4,7.4h1.4h6.9l7.3-7.4h-6.7L135.8,114.2L135.8,114.2z M150.6,114.2
		l-7.4,7.4h5.5h3.4h1.7l7.3-7.4h-6.9L150.6,114.2L150.6,114.2z M165.4,114.2l-7.4,7.4h13.6h4.1l7.3-7.4h-15h-1L165.4,114.2
		L165.4,114.2z M212.9,114.2l-7.4,7.4h1.8h6.2l7.3-7.4h-4.6L212.9,114.2L212.9,114.2z M255.7,114.2l-7.2,7.4h8.6h3.2l7.2-7.4h-9.8
		L255.7,114.2L255.7,114.2z M284.5,114.2l-7.2,7.4h8.6h3.2l7.2-7.4h-9.8C286.3,114.2,284.5,114.2,284.5,114.2z"/>
	<path class="st1" d="M69.8,43.2l2.1-3.1l0.1,3.1H69.8z M61.5,43.2l2.1-3.1l0.1,3.1H61.5z"/>
</g>
</svg>
