<?xml version="1.0" encoding="utf-8"?>
<!-- Generator: Adobe Illustrator 25.0.1, SVG Export Plug-In . SVG Version: 6.00 Build 0)  -->
<svg version="1.1" id="Layer_1" xmlns="http://www.w3.org/2000/svg" xmlns:xlink="http://www.w3.org/1999/xlink" x="0px" y="0px"
	 viewBox="0 0 255 110.7" style="enable-background:new 0 0 255 110.7;" xml:space="preserve">
<style type="text/css">
	.st0{fill:#D71A34;}
</style>
<g transform="matrix(.75679 0 0 .75679 -.047147 -.062389)">
	<g>
		<path class="st0" d="M2.4,144.4L15.7,70h19.1c-1.1-2.6-2.1-5.2-3-7.5c-1.9-4.7-3.5-8.7-3.7-9.1c-1.8-4.2-2.7-8.7-2.7-13.3
			c0-4.7,0.9-9.1,2.7-13.3c0.4-1,1-2,1.5-3c1-1.8,2.2-3.6,3.7-5.4c0.8-0.9,1.5-1.7,2.2-2.5c6.3-6.4,14.9-10,24-10
			c4.9,0,9.9,1.1,14.4,3.2h201.6l1.3-6.9l57.8-0.1l-11.1,63.6l5.1,5.3l-7.3,43.2l-23.6,23.3H61.8l-1.2,6.9H2.4z"/>
		<path class="st0" d="M332.3,4.1l-10.9,62.3l5.1,5.3l-7,41.6l-22.6,22.3H60.1l-1.2,6.9H4.8L17.4,72h20.4C34,62.5,30.2,52.9,30,52.5
			c-1.7-4-2.5-8.2-2.5-12.5c0-4.4,0.8-8.5,2.5-12.5c0.4-0.9,0.9-1.9,1.4-2.8c1-1.8,2.2-3.5,3.5-5.1c0.7-0.8,1.4-1.6,2.1-2.3
			c6-6.1,14.1-9.4,22.6-9.4c4.8,0,9.6,1.1,13.9,3.2h203.7l1.3-6.9L332.3,4.1 M337,0.1l-4.7,0l-53.8,0.1l-3.3,0l-0.6,3.2l-0.7,3.7
			H74.4C69.8,5,64.7,3.9,59.6,3.9c-9.7,0-18.7,3.8-25.4,10.6c-0.8,0.8-1.5,1.6-2.3,2.5l0,0.1l0,0.1c-1.6,1.9-2.8,3.8-3.9,5.7
			c-0.6,1-1.1,2.1-1.6,3.1c-1.9,4.5-2.8,9.1-2.8,14.1c0,4.9,0.9,9.7,2.8,14.1l0,0.1l0,0c0.3,0.7,1.9,4.7,3.6,9
			c0.6,1.5,1.3,3.2,1.9,4.9H17.4h-3.3l-0.6,3.3L0.9,141.8l-0.8,4.7h4.7h54.1h3.3l0.6-3.3l0.6-3.6h233.5h1.6l1.2-1.1l22.6-22.3
			l0.9-0.9l0.2-1.3l7-41.6l0.3-2l-1.4-1.4l-3.7-3.9l10.6-60.3L337,0.1L337,0.1z"/>
	</g>
</g>
</svg>
